SplineFontDB: 3.2
FontName: lclock
FullName: lclock
FamilyName: lclock
Weight: Regular
Copyright: 
Version: 1.0.0
ItalicAngle: 0
UnderlinePosition: 0
UnderlineWidth: 0
Ascent: 1000
Descent: 0
InvalidEm: 0
LayerCount: 2
Layer: 0 0 "+gMyXYgAA" 1
Layer: 1 0 "+Uk2XYgAA" 0
XUID: [1021 424 -602532898 20827]
OS2Version: 0
OS2_WeightWidthSlopeOnly: 0
OS2_UseTypoMetrics: 0
CreationTime: 1725504448
ModificationTime: 1726389189
PfmFamily: 17
TTFWeight: 400
TTFWidth: 5
LineGap: 90
VLineGap: 90
OS2TypoAscent: 0
OS2TypoAOffset: 1
OS2TypoDescent: 0
OS2TypoDOffset: 1
OS2TypoLinegap: 90
OS2WinAscent: 0
OS2WinAOffset: 1
OS2WinDescent: 0
OS2WinDOffset: 1
HheadAscent: 0
HheadAOffset: 1
HheadDescent: 0
HheadDOffset: 1
OS2Vendor: 'PfEd'
MarkAttachClasses: 1
DEI: 91125

StartChar: .notdef
Encoding: 0 0 0
Width: 500
VWidth: 1024
HStem: 0 21G<0 1000> 980 20G<0 1000>
VStem: 0 1000<0 1000>
LayerCount: 2
Fore
SplineSet
0 0 m 1
 0 1000 l 1
 1000 1000 l 1
 1000 0 l 1
 0 0 l 1
EndSplineSet
Validated: 1
EndChar

StartChar: eight
Encoding: 56 56 1
Width: 500
VWidth: 1024
Flags: H
LayerCount: 2
Fore
SplineSet
93.75 1000 m 1
 343.75 1000 l 1
 375 968.75 l 1
 281.25 875 l 1
 156.25 875 l 1
 62.5 968.75 l 1
 93.75 1000 l 1
31.25 937.5 m 1
 125 843.75 l 1
 125 625 l 1
 31.25 531.25 l 1
 0 562.5 l 1
 0 906.25 l 1
 31.25 937.5 l 1
406.25 937.5 m 1
 437.5 906.25 l 1
 437.5 562.5 l 1
 406.25 531.25 l 1
 312.5 625 l 1
 312.5 843.75 l 1
 406.25 937.5 l 1
125 562.5 m 1
 312.5 562.5 l 1
 375 500 l 1
 312.5 437.5 l 1
 125 437.5 l 1
 62.5 500 l 1
 125 562.5 l 1
31.25 468.75 m 1
 125 375 l 1
 125 156.25 l 1
 31.25 62.5 l 1
 0 93.75 l 1
 0 437.5 l 1
 31.25 468.75 l 1
406.25 468.75 m 1
 437.5 437.5 l 1
 437.5 93.75 l 1
 406.25 62.5 l 1
 312.5 156.25 l 1
 312.5 375 l 1
 406.25 468.75 l 1
156.25 125 m 1
 281.25 125 l 1
 375 31.25 l 1
 343.75 0 l 1
 93.75 0 l 1
 62.5 31.25 l 1
 156.25 125 l 1
EndSplineSet
EndChar

StartChar: zero
Encoding: 57 48 2
Width: 500
VWidth: 1024
Flags: H
LayerCount: 2
Fore
SplineSet
93.75 1000 m 1
 343.75 1000 l 1
 375 968.75 l 1
 281.25 875 l 1
 156.25 875 l 1
 62.5 968.75 l 1
 93.75 1000 l 1
31.25 937.5 m 1
 125 843.75 l 1
 125 625 l 1
 31.25 531.25 l 1
 0 562.5 l 1
 0 906.25 l 1
 31.25 937.5 l 1
406.25 937.5 m 1
 437.5 906.25 l 1
 437.5 562.5 l 1
 406.25 531.25 l 1
 312.5 625 l 1
 312.5 843.75 l 1
 406.25 937.5 l 1
31.25 468.75 m 1
 125 375 l 1
 125 156.25 l 1
 31.25 62.5 l 1
 0 93.75 l 1
 0 437.5 l 1
 31.25 468.75 l 1
406.25 468.75 m 1
 437.5 437.5 l 1
 437.5 93.75 l 1
 406.25 62.5 l 1
 312.5 156.25 l 1
 312.5 375 l 1
 406.25 468.75 l 1
156.25 125 m 1
 281.25 125 l 1
 375 31.25 l 1
 343.75 0 l 1
 93.75 0 l 1
 62.5 31.25 l 1
 156.25 125 l 1
EndSplineSet
EndChar

StartChar: one
Encoding: 58 49 3
Width: 500
VWidth: 1024
Flags: H
LayerCount: 2
Fore
SplineSet
406.25 937.5 m 1
 437.5 906.25 l 1
 437.5 562.5 l 1
 406.25 531.25 l 1
 312.5 625 l 1
 312.5 843.75 l 1
 406.25 937.5 l 1
406.25 468.75 m 1
 437.5 437.5 l 1
 437.5 93.75 l 1
 406.25 62.5 l 1
 312.5 156.25 l 1
 312.5 375 l 1
 406.25 468.75 l 1
EndSplineSet
EndChar

StartChar: two
Encoding: 59 50 4
Width: 500
VWidth: 1024
Flags: H
LayerCount: 2
Fore
SplineSet
93.75 1000 m 1
 343.75 1000 l 1
 375 968.75 l 1
 281.25 875 l 1
 156.25 875 l 1
 62.5 968.75 l 1
 93.75 1000 l 1
406.25 937.5 m 1
 437.5 906.25 l 1
 437.5 562.5 l 1
 406.25 531.25 l 1
 312.5 625 l 1
 312.5 843.75 l 1
 406.25 937.5 l 1
125 562.5 m 1
 312.5 562.5 l 1
 375 500 l 1
 312.5 437.5 l 1
 125 437.5 l 1
 62.5 500 l 1
 125 562.5 l 1
31.25 468.75 m 1
 125 375 l 1
 125 156.25 l 1
 31.25 62.5 l 1
 0 93.75 l 1
 0 437.5 l 1
 31.25 468.75 l 1
156.25 125 m 1
 281.25 125 l 1
 375 31.25 l 1
 343.75 0 l 1
 93.75 0 l 1
 62.5 31.25 l 1
 156.25 125 l 1
EndSplineSet
EndChar

StartChar: three
Encoding: 60 51 5
Width: 500
VWidth: 1024
Flags: H
LayerCount: 2
Fore
SplineSet
93.75 1000 m 1
 343.75 1000 l 1
 375 968.75 l 1
 281.25 875 l 1
 156.25 875 l 1
 62.5 968.75 l 1
 93.75 1000 l 1
406.25 937.5 m 1
 437.5 906.25 l 1
 437.5 562.5 l 1
 406.25 531.25 l 1
 312.5 625 l 1
 312.5 843.75 l 1
 406.25 937.5 l 1
125 562.5 m 1
 312.5 562.5 l 1
 375 500 l 1
 312.5 437.5 l 1
 125 437.5 l 1
 62.5 500 l 1
 125 562.5 l 1
406.25 468.75 m 1
 437.5 437.5 l 1
 437.5 93.75 l 1
 406.25 62.5 l 1
 312.5 156.25 l 1
 312.5 375 l 1
 406.25 468.75 l 1
156.25 125 m 1
 281.25 125 l 1
 375 31.25 l 1
 343.75 0 l 1
 93.75 0 l 1
 62.5 31.25 l 1
 156.25 125 l 1
EndSplineSet
EndChar

StartChar: four
Encoding: 61 52 6
Width: 500
VWidth: 1024
Flags: H
LayerCount: 2
Fore
SplineSet
31.25 937.5 m 1
 125 843.75 l 1
 125 625 l 1
 31.25 531.25 l 1
 0 562.5 l 1
 0 906.25 l 1
 31.25 937.5 l 1
406.25 937.5 m 1
 437.5 906.25 l 1
 437.5 562.5 l 1
 406.25 531.25 l 1
 312.5 625 l 1
 312.5 843.75 l 1
 406.25 937.5 l 1
125 562.5 m 1
 312.5 562.5 l 1
 375 500 l 1
 312.5 437.5 l 1
 125 437.5 l 1
 62.5 500 l 1
 125 562.5 l 1
406.25 468.75 m 1
 437.5 437.5 l 1
 437.5 93.75 l 1
 406.25 62.5 l 1
 312.5 156.25 l 1
 312.5 375 l 1
 406.25 468.75 l 1
EndSplineSet
EndChar

StartChar: five
Encoding: 62 53 7
Width: 500
VWidth: 1024
Flags: H
LayerCount: 2
Fore
SplineSet
93.75 1000 m 1
 343.75 1000 l 1
 375 968.75 l 1
 281.25 875 l 1
 156.25 875 l 1
 62.5 968.75 l 1
 93.75 1000 l 1
31.25 937.5 m 1
 125 843.75 l 1
 125 625 l 1
 31.25 531.25 l 1
 0 562.5 l 1
 0 906.25 l 1
 31.25 937.5 l 1
125 562.5 m 1
 312.5 562.5 l 1
 375 500 l 1
 312.5 437.5 l 1
 125 437.5 l 1
 62.5 500 l 1
 125 562.5 l 1
406.25 468.75 m 1
 437.5 437.5 l 1
 437.5 93.75 l 1
 406.25 62.5 l 1
 312.5 156.25 l 1
 312.5 375 l 1
 406.25 468.75 l 1
156.25 125 m 1
 281.25 125 l 1
 375 31.25 l 1
 343.75 0 l 1
 93.75 0 l 1
 62.5 31.25 l 1
 156.25 125 l 1
EndSplineSet
EndChar

StartChar: six
Encoding: 63 54 8
Width: 500
VWidth: 1024
Flags: H
LayerCount: 2
Fore
SplineSet
93.75 1000 m 1
 343.75 1000 l 1
 375 968.75 l 1
 281.25 875 l 1
 156.25 875 l 1
 62.5 968.75 l 1
 93.75 1000 l 1
31.25 937.5 m 1
 125 843.75 l 1
 125 625 l 1
 31.25 531.25 l 1
 0 562.5 l 1
 0 906.25 l 1
 31.25 937.5 l 1
125 562.5 m 1
 312.5 562.5 l 1
 375 500 l 1
 312.5 437.5 l 1
 125 437.5 l 1
 62.5 500 l 1
 125 562.5 l 1
31.25 468.75 m 1
 125 375 l 1
 125 156.25 l 1
 31.25 62.5 l 1
 0 93.75 l 1
 0 437.5 l 1
 31.25 468.75 l 1
406.25 468.75 m 1
 437.5 437.5 l 1
 437.5 93.75 l 1
 406.25 62.5 l 1
 312.5 156.25 l 1
 312.5 375 l 1
 406.25 468.75 l 1
156.25 125 m 1
 281.25 125 l 1
 375 31.25 l 1
 343.75 0 l 1
 93.75 0 l 1
 62.5 31.25 l 1
 156.25 125 l 1
EndSplineSet
EndChar

StartChar: seven
Encoding: 64 55 9
Width: 500
VWidth: 1024
Flags: H
LayerCount: 2
Fore
SplineSet
93.75 1000 m 1
 343.75 1000 l 1
 375 968.75 l 1
 281.25 875 l 1
 156.25 875 l 1
 62.5 968.75 l 1
 93.75 1000 l 1
406.25 937.5 m 1
 437.5 906.25 l 1
 437.5 562.5 l 1
 406.25 531.25 l 1
 312.5 625 l 1
 312.5 843.75 l 1
 406.25 937.5 l 1
406.25 468.75 m 1
 437.5 437.5 l 1
 437.5 93.75 l 1
 406.25 62.5 l 1
 312.5 156.25 l 1
 312.5 375 l 1
 406.25 468.75 l 1
EndSplineSet
EndChar

StartChar: nine
Encoding: 65 57 10
Width: 500
VWidth: 1024
Flags: H
LayerCount: 2
Fore
SplineSet
93.75 1000 m 1
 343.75 1000 l 1
 375 968.75 l 1
 281.25 875 l 1
 156.25 875 l 1
 62.5 968.75 l 1
 93.75 1000 l 1
31.25 937.5 m 1
 125 843.75 l 1
 125 625 l 1
 31.25 531.25 l 1
 0 562.5 l 1
 0 906.25 l 1
 31.25 937.5 l 1
406.25 937.5 m 1
 437.5 906.25 l 1
 437.5 562.5 l 1
 406.25 531.25 l 1
 312.5 625 l 1
 312.5 843.75 l 1
 406.25 937.5 l 1
125 562.5 m 1
 312.5 562.5 l 1
 375 500 l 1
 312.5 437.5 l 1
 125 437.5 l 1
 62.5 500 l 1
 125 562.5 l 1
406.25 468.75 m 1
 437.5 437.5 l 1
 437.5 93.75 l 1
 406.25 62.5 l 1
 312.5 156.25 l 1
 312.5 375 l 1
 406.25 468.75 l 1
156.25 125 m 1
 281.25 125 l 1
 375 31.25 l 1
 343.75 0 l 1
 93.75 0 l 1
 62.5 31.25 l 1
 156.25 125 l 1
EndSplineSet
EndChar

StartChar: A
Encoding: 66 65 11
Width: 500
VWidth: 1024
Flags: H
LayerCount: 2
Fore
SplineSet
93.75 1000 m 1
 343.75 1000 l 1
 375 968.75 l 1
 281.25 875 l 1
 156.25 875 l 1
 62.5 968.75 l 1
 93.75 1000 l 1
31.25 937.5 m 1
 125 843.75 l 1
 125 625 l 1
 31.25 531.25 l 1
 0 562.5 l 1
 0 906.25 l 1
 31.25 937.5 l 1
406.25 937.5 m 1
 437.5 906.25 l 1
 437.5 562.5 l 1
 406.25 531.25 l 1
 312.5 625 l 1
 312.5 843.75 l 1
 406.25 937.5 l 1
125 562.5 m 1
 312.5 562.5 l 1
 375 500 l 1
 312.5 437.5 l 1
 125 437.5 l 1
 62.5 500 l 1
 125 562.5 l 1
31.25 468.75 m 1
 125 375 l 1
 125 156.25 l 1
 31.25 62.5 l 1
 0 93.75 l 1
 0 437.5 l 1
 31.25 468.75 l 1
406.25 468.75 m 1
 437.5 437.5 l 1
 437.5 93.75 l 1
 406.25 62.5 l 1
 312.5 156.25 l 1
 312.5 375 l 1
 406.25 468.75 l 1
EndSplineSet
EndChar

StartChar: C
Encoding: 67 67 12
Width: 500
VWidth: 1024
Flags: H
LayerCount: 2
Fore
SplineSet
93.75 1000 m 1
 343.75 1000 l 1
 375 968.75 l 1
 281.25 875 l 1
 156.25 875 l 1
 62.5 968.75 l 1
 93.75 1000 l 1
31.25 937.5 m 1
 125 843.75 l 1
 125 625 l 1
 31.25 531.25 l 1
 0 562.5 l 1
 0 906.25 l 1
 31.25 937.5 l 1
31.25 468.75 m 1
 125 375 l 1
 125 156.25 l 1
 31.25 62.5 l 1
 0 93.75 l 1
 0 437.5 l 1
 31.25 468.75 l 1
156.25 125 m 1
 281.25 125 l 1
 375 31.25 l 1
 343.75 0 l 1
 93.75 0 l 1
 62.5 31.25 l 1
 156.25 125 l 1
EndSplineSet
EndChar

StartChar: E
Encoding: 68 69 13
Width: 500
VWidth: 1024
Flags: H
LayerCount: 2
Fore
SplineSet
93.75 1000 m 1
 343.75 1000 l 1
 375 968.75 l 1
 281.25 875 l 1
 156.25 875 l 1
 62.5 968.75 l 1
 93.75 1000 l 1
31.25 937.5 m 1
 125 843.75 l 1
 125 625 l 1
 31.25 531.25 l 1
 0 562.5 l 1
 0 906.25 l 1
 31.25 937.5 l 1
125 562.5 m 1
 312.5 562.5 l 1
 375 500 l 1
 312.5 437.5 l 1
 125 437.5 l 1
 62.5 500 l 1
 125 562.5 l 1
31.25 468.75 m 1
 125 375 l 1
 125 156.25 l 1
 31.25 62.5 l 1
 0 93.75 l 1
 0 437.5 l 1
 31.25 468.75 l 1
156.25 125 m 1
 281.25 125 l 1
 375 31.25 l 1
 343.75 0 l 1
 93.75 0 l 1
 62.5 31.25 l 1
 156.25 125 l 1
EndSplineSet
EndChar

StartChar: F
Encoding: 69 70 14
Width: 500
VWidth: 1024
Flags: H
LayerCount: 2
Fore
SplineSet
93.75 1000 m 1
 343.75 1000 l 1
 375 968.75 l 1
 281.25 875 l 1
 156.25 875 l 1
 62.5 968.75 l 1
 93.75 1000 l 1
31.25 937.5 m 1
 125 843.75 l 1
 125 625 l 1
 31.25 531.25 l 1
 0 562.5 l 1
 0 906.25 l 1
 31.25 937.5 l 1
125 562.5 m 1
 312.5 562.5 l 1
 375 500 l 1
 312.5 437.5 l 1
 125 437.5 l 1
 62.5 500 l 1
 125 562.5 l 1
31.25 468.75 m 1
 125 375 l 1
 125 156.25 l 1
 31.25 62.5 l 1
 0 93.75 l 1
 0 437.5 l 1
 31.25 468.75 l 1
EndSplineSet
EndChar

StartChar: G
Encoding: 70 71 15
Width: 500
VWidth: 1024
Flags: H
LayerCount: 2
Fore
SplineSet
93.75 1000 m 1
 343.75 1000 l 1
 375 968.75 l 1
 281.25 875 l 1
 156.25 875 l 1
 62.5 968.75 l 1
 93.75 1000 l 1
31.25 937.5 m 1
 125 843.75 l 1
 125 625 l 1
 31.25 531.25 l 1
 0 562.5 l 1
 0 906.25 l 1
 31.25 937.5 l 1
31.25 468.75 m 1
 125 375 l 1
 125 156.25 l 1
 31.25 62.5 l 1
 0 93.75 l 1
 0 437.5 l 1
 31.25 468.75 l 1
406.25 468.75 m 1
 437.5 437.5 l 1
 437.5 93.75 l 1
 406.25 62.5 l 1
 312.5 156.25 l 1
 312.5 375 l 1
 406.25 468.75 l 1
156.25 125 m 1
 281.25 125 l 1
 375 31.25 l 1
 343.75 0 l 1
 93.75 0 l 1
 62.5 31.25 l 1
 156.25 125 l 1
EndSplineSet
EndChar

StartChar: H
Encoding: 71 72 16
Width: 500
VWidth: 1024
Flags: H
LayerCount: 2
Fore
SplineSet
31.25 937.5 m 1
 125 843.75 l 1
 125 625 l 1
 31.25 531.25 l 1
 0 562.5 l 1
 0 906.25 l 1
 31.25 937.5 l 1
406.25 937.5 m 1
 437.5 906.25 l 1
 437.5 562.5 l 1
 406.25 531.25 l 1
 312.5 625 l 1
 312.5 843.75 l 1
 406.25 937.5 l 1
125 562.5 m 1
 312.5 562.5 l 1
 375 500 l 1
 312.5 437.5 l 1
 125 437.5 l 1
 62.5 500 l 1
 125 562.5 l 1
31.25 468.75 m 1
 125 375 l 1
 125 156.25 l 1
 31.25 62.5 l 1
 0 93.75 l 1
 0 437.5 l 1
 31.25 468.75 l 1
406.25 468.75 m 1
 437.5 437.5 l 1
 437.5 93.75 l 1
 406.25 62.5 l 1
 312.5 156.25 l 1
 312.5 375 l 1
 406.25 468.75 l 1
EndSplineSet
EndChar

StartChar: I
Encoding: 72 73 17
Width: 500
VWidth: 1024
Flags: H
LayerCount: 2
Fore
SplineSet
406.25 937.5 m 1
 437.5 906.25 l 1
 437.5 562.5 l 1
 406.25 531.25 l 1
 312.5 625 l 1
 312.5 843.75 l 1
 406.25 937.5 l 1
406.25 468.75 m 1
 437.5 437.5 l 1
 437.5 93.75 l 1
 406.25 62.5 l 1
 312.5 156.25 l 1
 312.5 375 l 1
 406.25 468.75 l 1
EndSplineSet
EndChar

StartChar: J
Encoding: 73 74 18
Width: 500
VWidth: 1024
Flags: H
LayerCount: 2
Fore
SplineSet
406.25 937.5 m 1
 437.5 906.25 l 1
 437.5 562.5 l 1
 406.25 531.25 l 1
 312.5 625 l 1
 312.5 843.75 l 1
 406.25 937.5 l 1
31.25 468.75 m 1
 125 375 l 1
 125 156.25 l 1
 31.25 62.5 l 1
 0 93.75 l 1
 0 437.5 l 1
 31.25 468.75 l 1
406.25 468.75 m 1
 437.5 437.5 l 1
 437.5 93.75 l 1
 406.25 62.5 l 1
 312.5 156.25 l 1
 312.5 375 l 1
 406.25 468.75 l 1
156.25 125 m 1
 281.25 125 l 1
 375 31.25 l 1
 343.75 0 l 1
 93.75 0 l 1
 62.5 31.25 l 1
 156.25 125 l 1
EndSplineSet
EndChar

StartChar: L
Encoding: 74 76 19
Width: 500
VWidth: 1024
Flags: H
LayerCount: 2
Fore
SplineSet
31.25 937.5 m 1
 125 843.75 l 1
 125 625 l 1
 31.25 531.25 l 1
 0 562.5 l 1
 0 906.25 l 1
 31.25 937.5 l 1
31.25 468.75 m 1
 125 375 l 1
 125 156.25 l 1
 31.25 62.5 l 1
 0 93.75 l 1
 0 437.5 l 1
 31.25 468.75 l 1
156.25 125 m 1
 281.25 125 l 1
 375 31.25 l 1
 343.75 0 l 1
 93.75 0 l 1
 62.5 31.25 l 1
 156.25 125 l 1
EndSplineSet
EndChar

StartChar: O
Encoding: 75 79 20
Width: 500
VWidth: 1024
Flags: H
LayerCount: 2
Fore
SplineSet
93.75 1000 m 1
 343.75 1000 l 1
 375 968.75 l 1
 281.25 875 l 1
 156.25 875 l 1
 62.5 968.75 l 1
 93.75 1000 l 1
31.25 937.5 m 1
 125 843.75 l 1
 125 625 l 1
 31.25 531.25 l 1
 0 562.5 l 1
 0 906.25 l 1
 31.25 937.5 l 1
406.25 937.5 m 1
 437.5 906.25 l 1
 437.5 562.5 l 1
 406.25 531.25 l 1
 312.5 625 l 1
 312.5 843.75 l 1
 406.25 937.5 l 1
31.25 468.75 m 1
 125 375 l 1
 125 156.25 l 1
 31.25 62.5 l 1
 0 93.75 l 1
 0 437.5 l 1
 31.25 468.75 l 1
406.25 468.75 m 1
 437.5 437.5 l 1
 437.5 93.75 l 1
 406.25 62.5 l 1
 312.5 156.25 l 1
 312.5 375 l 1
 406.25 468.75 l 1
156.25 125 m 1
 281.25 125 l 1
 375 31.25 l 1
 343.75 0 l 1
 93.75 0 l 1
 62.5 31.25 l 1
 156.25 125 l 1
EndSplineSet
EndChar

StartChar: P
Encoding: 76 80 21
Width: 500
VWidth: 1024
Flags: H
LayerCount: 2
Fore
SplineSet
93.75 1000 m 1
 343.75 1000 l 1
 375 968.75 l 1
 281.25 875 l 1
 156.25 875 l 1
 62.5 968.75 l 1
 93.75 1000 l 1
31.25 937.5 m 1
 125 843.75 l 1
 125 625 l 1
 31.25 531.25 l 1
 0 562.5 l 1
 0 906.25 l 1
 31.25 937.5 l 1
406.25 937.5 m 1
 437.5 906.25 l 1
 437.5 562.5 l 1
 406.25 531.25 l 1
 312.5 625 l 1
 312.5 843.75 l 1
 406.25 937.5 l 1
125 562.5 m 1
 312.5 562.5 l 1
 375 500 l 1
 312.5 437.5 l 1
 125 437.5 l 1
 62.5 500 l 1
 125 562.5 l 1
31.25 468.75 m 1
 125 375 l 1
 125 156.25 l 1
 31.25 62.5 l 1
 0 93.75 l 1
 0 437.5 l 1
 31.25 468.75 l 1
EndSplineSet
EndChar

StartChar: S
Encoding: 77 83 22
Width: 500
VWidth: 1024
Flags: H
LayerCount: 2
Fore
SplineSet
93.75 1000 m 1
 343.75 1000 l 1
 375 968.75 l 1
 281.25 875 l 1
 156.25 875 l 1
 62.5 968.75 l 1
 93.75 1000 l 1
31.25 937.5 m 1
 125 843.75 l 1
 125 625 l 1
 31.25 531.25 l 1
 0 562.5 l 1
 0 906.25 l 1
 31.25 937.5 l 1
125 562.5 m 1
 312.5 562.5 l 1
 375 500 l 1
 312.5 437.5 l 1
 125 437.5 l 1
 62.5 500 l 1
 125 562.5 l 1
406.25 468.75 m 1
 437.5 437.5 l 1
 437.5 93.75 l 1
 406.25 62.5 l 1
 312.5 156.25 l 1
 312.5 375 l 1
 406.25 468.75 l 1
156.25 125 m 1
 281.25 125 l 1
 375 31.25 l 1
 343.75 0 l 1
 93.75 0 l 1
 62.5 31.25 l 1
 156.25 125 l 1
EndSplineSet
EndChar

StartChar: U
Encoding: 78 85 23
Width: 500
VWidth: 1024
Flags: H
LayerCount: 2
Fore
SplineSet
31.25 937.5 m 1
 125 843.75 l 1
 125 625 l 1
 31.25 531.25 l 1
 0 562.5 l 1
 0 906.25 l 1
 31.25 937.5 l 1
406.25 937.5 m 1
 437.5 906.25 l 1
 437.5 562.5 l 1
 406.25 531.25 l 1
 312.5 625 l 1
 312.5 843.75 l 1
 406.25 937.5 l 1
31.25 468.75 m 1
 125 375 l 1
 125 156.25 l 1
 31.25 62.5 l 1
 0 93.75 l 1
 0 437.5 l 1
 31.25 468.75 l 1
406.25 468.75 m 1
 437.5 437.5 l 1
 437.5 93.75 l 1
 406.25 62.5 l 1
 312.5 156.25 l 1
 312.5 375 l 1
 406.25 468.75 l 1
156.25 125 m 1
 281.25 125 l 1
 375 31.25 l 1
 343.75 0 l 1
 93.75 0 l 1
 62.5 31.25 l 1
 156.25 125 l 1
EndSplineSet
EndChar

StartChar: Z
Encoding: 79 90 24
Width: 500
VWidth: 1024
Flags: H
LayerCount: 2
Fore
SplineSet
93.75 1000 m 1
 343.75 1000 l 1
 375 968.75 l 1
 281.25 875 l 1
 156.25 875 l 1
 62.5 968.75 l 1
 93.75 1000 l 1
406.25 937.5 m 1
 437.5 906.25 l 1
 437.5 562.5 l 1
 406.25 531.25 l 1
 312.5 625 l 1
 312.5 843.75 l 1
 406.25 937.5 l 1
125 562.5 m 1
 312.5 562.5 l 1
 375 500 l 1
 312.5 437.5 l 1
 125 437.5 l 1
 62.5 500 l 1
 125 562.5 l 1
31.25 468.75 m 1
 125 375 l 1
 125 156.25 l 1
 31.25 62.5 l 1
 0 93.75 l 1
 0 437.5 l 1
 31.25 468.75 l 1
156.25 125 m 1
 281.25 125 l 1
 375 31.25 l 1
 343.75 0 l 1
 93.75 0 l 1
 62.5 31.25 l 1
 156.25 125 l 1
EndSplineSet
EndChar

StartChar: a
Encoding: 80 97 25
Width: 500
VWidth: 1024
Flags: H
LayerCount: 2
Fore
SplineSet
93.75 1000 m 1
 343.75 1000 l 1
 375 968.75 l 1
 281.25 875 l 1
 156.25 875 l 1
 62.5 968.75 l 1
 93.75 1000 l 1
406.25 937.5 m 1
 437.5 906.25 l 1
 437.5 562.5 l 1
 406.25 531.25 l 1
 312.5 625 l 1
 312.5 843.75 l 1
 406.25 937.5 l 1
125 562.5 m 1
 312.5 562.5 l 1
 375 500 l 1
 312.5 437.5 l 1
 125 437.5 l 1
 62.5 500 l 1
 125 562.5 l 1
31.25 468.75 m 1
 125 375 l 1
 125 156.25 l 1
 31.25 62.5 l 1
 0 93.75 l 1
 0 437.5 l 1
 31.25 468.75 l 1
406.25 468.75 m 1
 437.5 437.5 l 1
 437.5 93.75 l 1
 406.25 62.5 l 1
 312.5 156.25 l 1
 312.5 375 l 1
 406.25 468.75 l 1
156.25 125 m 1
 281.25 125 l 1
 375 31.25 l 1
 343.75 0 l 1
 93.75 0 l 1
 62.5 31.25 l 1
 156.25 125 l 1
EndSplineSet
EndChar

StartChar: b
Encoding: 81 98 26
Width: 500
VWidth: 1024
Flags: H
LayerCount: 2
Fore
SplineSet
31.25 937.5 m 1
 125 843.75 l 1
 125 625 l 1
 31.25 531.25 l 1
 0 562.5 l 1
 0 906.25 l 1
 31.25 937.5 l 1
125 562.5 m 1
 312.5 562.5 l 1
 375 500 l 1
 312.5 437.5 l 1
 125 437.5 l 1
 62.5 500 l 1
 125 562.5 l 1
31.25 468.75 m 1
 125 375 l 1
 125 156.25 l 1
 31.25 62.5 l 1
 0 93.75 l 1
 0 437.5 l 1
 31.25 468.75 l 1
406.25 468.75 m 1
 437.5 437.5 l 1
 437.5 93.75 l 1
 406.25 62.5 l 1
 312.5 156.25 l 1
 312.5 375 l 1
 406.25 468.75 l 1
156.25 125 m 1
 281.25 125 l 1
 375 31.25 l 1
 343.75 0 l 1
 93.75 0 l 1
 62.5 31.25 l 1
 156.25 125 l 1
EndSplineSet
EndChar

StartChar: c
Encoding: 82 99 27
Width: 500
VWidth: 1024
Flags: H
LayerCount: 2
Fore
SplineSet
125 562.5 m 1
 312.5 562.5 l 1
 375 500 l 1
 312.5 437.5 l 1
 125 437.5 l 1
 62.5 500 l 1
 125 562.5 l 1
31.25 468.75 m 1
 125 375 l 1
 125 156.25 l 1
 31.25 62.5 l 1
 0 93.75 l 1
 0 437.5 l 1
 31.25 468.75 l 1
156.25 125 m 1
 281.25 125 l 1
 375 31.25 l 1
 343.75 0 l 1
 93.75 0 l 1
 62.5 31.25 l 1
 156.25 125 l 1
EndSplineSet
EndChar

StartChar: d
Encoding: 83 100 28
Width: 500
VWidth: 1024
Flags: H
LayerCount: 2
Fore
SplineSet
406.25 937.5 m 1
 437.5 906.25 l 1
 437.5 562.5 l 1
 406.25 531.25 l 1
 312.5 625 l 1
 312.5 843.75 l 1
 406.25 937.5 l 1
125 562.5 m 1
 312.5 562.5 l 1
 375 500 l 1
 312.5 437.5 l 1
 125 437.5 l 1
 62.5 500 l 1
 125 562.5 l 1
31.25 468.75 m 1
 125 375 l 1
 125 156.25 l 1
 31.25 62.5 l 1
 0 93.75 l 1
 0 437.5 l 1
 31.25 468.75 l 1
406.25 468.75 m 1
 437.5 437.5 l 1
 437.5 93.75 l 1
 406.25 62.5 l 1
 312.5 156.25 l 1
 312.5 375 l 1
 406.25 468.75 l 1
156.25 125 m 1
 281.25 125 l 1
 375 31.25 l 1
 343.75 0 l 1
 93.75 0 l 1
 62.5 31.25 l 1
 156.25 125 l 1
EndSplineSet
EndChar

StartChar: e
Encoding: 84 101 29
Width: 500
VWidth: 1024
Flags: H
LayerCount: 2
Fore
SplineSet
93.75 1000 m 1
 343.75 1000 l 1
 375 968.75 l 1
 281.25 875 l 1
 156.25 875 l 1
 62.5 968.75 l 1
 93.75 1000 l 1
31.25 937.5 m 1
 125 843.75 l 1
 125 625 l 1
 31.25 531.25 l 1
 0 562.5 l 1
 0 906.25 l 1
 31.25 937.5 l 1
406.25 937.5 m 1
 437.5 906.25 l 1
 437.5 562.5 l 1
 406.25 531.25 l 1
 312.5 625 l 1
 312.5 843.75 l 1
 406.25 937.5 l 1
125 562.5 m 1
 312.5 562.5 l 1
 375 500 l 1
 312.5 437.5 l 1
 125 437.5 l 1
 62.5 500 l 1
 125 562.5 l 1
31.25 468.75 m 1
 125 375 l 1
 125 156.25 l 1
 31.25 62.5 l 1
 0 93.75 l 1
 0 437.5 l 1
 31.25 468.75 l 1
156.25 125 m 1
 281.25 125 l 1
 375 31.25 l 1
 343.75 0 l 1
 93.75 0 l 1
 62.5 31.25 l 1
 156.25 125 l 1
EndSplineSet
EndChar

StartChar: g
Encoding: 85 103 30
Width: 500
VWidth: 1024
Flags: H
LayerCount: 2
Fore
SplineSet
93.75 1000 m 1
 343.75 1000 l 1
 375 968.75 l 1
 281.25 875 l 1
 156.25 875 l 1
 62.5 968.75 l 1
 93.75 1000 l 1
31.25 937.5 m 1
 125 843.75 l 1
 125 625 l 1
 31.25 531.25 l 1
 0 562.5 l 1
 0 906.25 l 1
 31.25 937.5 l 1
406.25 937.5 m 1
 437.5 906.25 l 1
 437.5 562.5 l 1
 406.25 531.25 l 1
 312.5 625 l 1
 312.5 843.75 l 1
 406.25 937.5 l 1
125 562.5 m 1
 312.5 562.5 l 1
 375 500 l 1
 312.5 437.5 l 1
 125 437.5 l 1
 62.5 500 l 1
 125 562.5 l 1
406.25 468.75 m 1
 437.5 437.5 l 1
 437.5 93.75 l 1
 406.25 62.5 l 1
 312.5 156.25 l 1
 312.5 375 l 1
 406.25 468.75 l 1
156.25 125 m 1
 281.25 125 l 1
 375 31.25 l 1
 343.75 0 l 1
 93.75 0 l 1
 62.5 31.25 l 1
 156.25 125 l 1
EndSplineSet
EndChar

StartChar: h
Encoding: 86 104 31
Width: 500
VWidth: 1024
Flags: H
LayerCount: 2
Fore
SplineSet
31.25 937.5 m 1
 125 843.75 l 1
 125 625 l 1
 31.25 531.25 l 1
 0 562.5 l 1
 0 906.25 l 1
 31.25 937.5 l 1
125 562.5 m 1
 312.5 562.5 l 1
 375 500 l 1
 312.5 437.5 l 1
 125 437.5 l 1
 62.5 500 l 1
 125 562.5 l 1
31.25 468.75 m 1
 125 375 l 1
 125 156.25 l 1
 31.25 62.5 l 1
 0 93.75 l 1
 0 437.5 l 1
 31.25 468.75 l 1
406.25 468.75 m 1
 437.5 437.5 l 1
 437.5 93.75 l 1
 406.25 62.5 l 1
 312.5 156.25 l 1
 312.5 375 l 1
 406.25 468.75 l 1
EndSplineSet
EndChar

StartChar: i
Encoding: 87 105 32
Width: 500
VWidth: 1024
Flags: H
LayerCount: 2
Fore
SplineSet
406.25 468.75 m 1
 437.5 437.5 l 1
 437.5 93.75 l 1
 406.25 62.5 l 1
 312.5 156.25 l 1
 312.5 375 l 1
 406.25 468.75 l 1
EndSplineSet
EndChar

StartChar: j
Encoding: 88 106 33
Width: 500
VWidth: 1024
Flags: H
LayerCount: 2
Fore
SplineSet
406.25 937.5 m 1
 437.5 906.25 l 1
 437.5 562.5 l 1
 406.25 531.25 l 1
 312.5 625 l 1
 312.5 843.75 l 1
 406.25 937.5 l 1
406.25 468.75 m 1
 437.5 437.5 l 1
 437.5 93.75 l 1
 406.25 62.5 l 1
 312.5 156.25 l 1
 312.5 375 l 1
 406.25 468.75 l 1
156.25 125 m 1
 281.25 125 l 1
 375 31.25 l 1
 343.75 0 l 1
 93.75 0 l 1
 62.5 31.25 l 1
 156.25 125 l 1
EndSplineSet
EndChar

StartChar: l
Encoding: 89 108 34
Width: 500
VWidth: 1024
Flags: H
LayerCount: 2
Fore
SplineSet
31.25 937.5 m 1
 125 843.75 l 1
 125 625 l 1
 31.25 531.25 l 1
 0 562.5 l 1
 0 906.25 l 1
 31.25 937.5 l 1
31.25 468.75 m 1
 125 375 l 1
 125 156.25 l 1
 31.25 62.5 l 1
 0 93.75 l 1
 0 437.5 l 1
 31.25 468.75 l 1
EndSplineSet
EndChar

StartChar: n
Encoding: 90 110 35
Width: 500
VWidth: 1024
Flags: H
LayerCount: 2
Fore
SplineSet
125 562.5 m 1
 312.5 562.5 l 1
 375 500 l 1
 312.5 437.5 l 1
 125 437.5 l 1
 62.5 500 l 1
 125 562.5 l 1
31.25 468.75 m 1
 125 375 l 1
 125 156.25 l 1
 31.25 62.5 l 1
 0 93.75 l 1
 0 437.5 l 1
 31.25 468.75 l 1
406.25 468.75 m 1
 437.5 437.5 l 1
 437.5 93.75 l 1
 406.25 62.5 l 1
 312.5 156.25 l 1
 312.5 375 l 1
 406.25 468.75 l 1
EndSplineSet
EndChar

StartChar: o
Encoding: 91 111 36
Width: 500
VWidth: 1024
Flags: H
LayerCount: 2
Fore
SplineSet
125 562.5 m 1
 312.5 562.5 l 1
 375 500 l 1
 312.5 437.5 l 1
 125 437.5 l 1
 62.5 500 l 1
 125 562.5 l 1
31.25 468.75 m 1
 125 375 l 1
 125 156.25 l 1
 31.25 62.5 l 1
 0 93.75 l 1
 0 437.5 l 1
 31.25 468.75 l 1
406.25 468.75 m 1
 437.5 437.5 l 1
 437.5 93.75 l 1
 406.25 62.5 l 1
 312.5 156.25 l 1
 312.5 375 l 1
 406.25 468.75 l 1
156.25 125 m 1
 281.25 125 l 1
 375 31.25 l 1
 343.75 0 l 1
 93.75 0 l 1
 62.5 31.25 l 1
 156.25 125 l 1
EndSplineSet
EndChar

StartChar: q
Encoding: 92 113 37
Width: 500
VWidth: 1024
Flags: H
LayerCount: 2
Fore
SplineSet
93.75 1000 m 1
 343.75 1000 l 1
 375 968.75 l 1
 281.25 875 l 1
 156.25 875 l 1
 62.5 968.75 l 1
 93.75 1000 l 1
31.25 937.5 m 1
 125 843.75 l 1
 125 625 l 1
 31.25 531.25 l 1
 0 562.5 l 1
 0 906.25 l 1
 31.25 937.5 l 1
406.25 937.5 m 1
 437.5 906.25 l 1
 437.5 562.5 l 1
 406.25 531.25 l 1
 312.5 625 l 1
 312.5 843.75 l 1
 406.25 937.5 l 1
125 562.5 m 1
 312.5 562.5 l 1
 375 500 l 1
 312.5 437.5 l 1
 125 437.5 l 1
 62.5 500 l 1
 125 562.5 l 1
406.25 468.75 m 1
 437.5 437.5 l 1
 437.5 93.75 l 1
 406.25 62.5 l 1
 312.5 156.25 l 1
 312.5 375 l 1
 406.25 468.75 l 1
EndSplineSet
EndChar

StartChar: r
Encoding: 93 114 38
Width: 500
VWidth: 1024
Flags: H
LayerCount: 2
Fore
SplineSet
125 562.5 m 1
 312.5 562.5 l 1
 375 500 l 1
 312.5 437.5 l 1
 125 437.5 l 1
 62.5 500 l 1
 125 562.5 l 1
31.25 468.75 m 1
 125 375 l 1
 125 156.25 l 1
 31.25 62.5 l 1
 0 93.75 l 1
 0 437.5 l 1
 31.25 468.75 l 1
EndSplineSet
EndChar

StartChar: t
Encoding: 94 116 39
Width: 500
VWidth: 1024
Flags: H
LayerCount: 2
Fore
SplineSet
31.25 937.5 m 1
 125 843.75 l 1
 125 625 l 1
 31.25 531.25 l 1
 0 562.5 l 1
 0 906.25 l 1
 31.25 937.5 l 1
125 562.5 m 1
 312.5 562.5 l 1
 375 500 l 1
 312.5 437.5 l 1
 125 437.5 l 1
 62.5 500 l 1
 125 562.5 l 1
31.25 468.75 m 1
 125 375 l 1
 125 156.25 l 1
 31.25 62.5 l 1
 0 93.75 l 1
 0 437.5 l 1
 31.25 468.75 l 1
156.25 125 m 1
 281.25 125 l 1
 375 31.25 l 1
 343.75 0 l 1
 93.75 0 l 1
 62.5 31.25 l 1
 156.25 125 l 1
EndSplineSet
EndChar

StartChar: u
Encoding: 95 117 40
Width: 500
VWidth: 1024
Flags: H
LayerCount: 2
Fore
SplineSet
31.25 468.75 m 1
 125 375 l 1
 125 156.25 l 1
 31.25 62.5 l 1
 0 93.75 l 1
 0 437.5 l 1
 31.25 468.75 l 1
406.25 468.75 m 1
 437.5 437.5 l 1
 437.5 93.75 l 1
 406.25 62.5 l 1
 312.5 156.25 l 1
 312.5 375 l 1
 406.25 468.75 l 1
156.25 125 m 1
 281.25 125 l 1
 375 31.25 l 1
 343.75 0 l 1
 93.75 0 l 1
 62.5 31.25 l 1
 156.25 125 l 1
EndSplineSet
EndChar

StartChar: y
Encoding: 96 121 41
Width: 500
VWidth: 1024
Flags: H
LayerCount: 2
Fore
SplineSet
31.25 937.5 m 1
 125 843.75 l 1
 125 625 l 1
 31.25 531.25 l 1
 0 562.5 l 1
 0 906.25 l 1
 31.25 937.5 l 1
406.25 937.5 m 1
 437.5 906.25 l 1
 437.5 562.5 l 1
 406.25 531.25 l 1
 312.5 625 l 1
 312.5 843.75 l 1
 406.25 937.5 l 1
125 562.5 m 1
 312.5 562.5 l 1
 375 500 l 1
 312.5 437.5 l 1
 125 437.5 l 1
 62.5 500 l 1
 125 562.5 l 1
406.25 468.75 m 1
 437.5 437.5 l 1
 437.5 93.75 l 1
 406.25 62.5 l 1
 312.5 156.25 l 1
 312.5 375 l 1
 406.25 468.75 l 1
156.25 125 m 1
 281.25 125 l 1
 375 31.25 l 1
 343.75 0 l 1
 93.75 0 l 1
 62.5 31.25 l 1
 156.25 125 l 1
EndSplineSet
EndChar

StartChar: underscore
Encoding: 97 95 42
Width: 500
VWidth: 1024
Flags: H
LayerCount: 2
Fore
SplineSet
156.25 125 m 1
 281.25 125 l 1
 375 31.25 l 1
 343.75 0 l 1
 93.75 0 l 1
 62.5 31.25 l 1
 156.25 125 l 1
EndSplineSet
EndChar

StartChar: hyphen
Encoding: 98 45 43
Width: 500
VWidth: 1024
Flags: H
LayerCount: 2
Fore
SplineSet
125 562.5 m 1
 312.5 562.5 l 1
 375 500 l 1
 312.5 437.5 l 1
 125 437.5 l 1
 62.5 500 l 1
 125 562.5 l 1
EndSplineSet
EndChar

StartChar: equal
Encoding: 99 61 44
Width: 500
VWidth: 1024
Flags: H
LayerCount: 2
Fore
SplineSet
125 562.5 m 1
 312.5 562.5 l 1
 375 500 l 1
 312.5 437.5 l 1
 125 437.5 l 1
 62.5 500 l 1
 125 562.5 l 1
156.25 125 m 1
 281.25 125 l 1
 375 31.25 l 1
 343.75 0 l 1
 93.75 0 l 1
 62.5 31.25 l 1
 156.25 125 l 1
EndSplineSet
EndChar

StartChar: greater
Encoding: 100 62 45
Width: 500
VWidth: 1024
Flags: H
LayerCount: 2
Fore
SplineSet
93.75 1000 m 1
 343.75 1000 l 1
 375 968.75 l 1
 281.25 875 l 1
 156.25 875 l 1
 62.5 968.75 l 1
 93.75 1000 l 1
406.25 937.5 m 1
 437.5 906.25 l 1
 437.5 562.5 l 1
 406.25 531.25 l 1
 312.5 625 l 1
 312.5 843.75 l 1
 406.25 937.5 l 1
125 562.5 m 1
 312.5 562.5 l 1
 375 500 l 1
 312.5 437.5 l 1
 125 437.5 l 1
 62.5 500 l 1
 125 562.5 l 1
EndSplineSet
EndChar

StartChar: question
Encoding: 101 63 46
Width: 500
VWidth: 1024
Flags: H
LayerCount: 2
Fore
SplineSet
93.75 1000 m 1
 343.75 1000 l 1
 375 968.75 l 1
 281.25 875 l 1
 156.25 875 l 1
 62.5 968.75 l 1
 93.75 1000 l 1
406.25 937.5 m 1
 437.5 906.25 l 1
 437.5 562.5 l 1
 406.25 531.25 l 1
 312.5 625 l 1
 312.5 843.75 l 1
 406.25 937.5 l 1
125 562.5 m 1
 312.5 562.5 l 1
 375 500 l 1
 312.5 437.5 l 1
 125 437.5 l 1
 62.5 500 l 1
 125 562.5 l 1
31.25 468.75 m 1
 125 375 l 1
 125 156.25 l 1
 31.25 62.5 l 1
 0 93.75 l 1
 0 437.5 l 1
 31.25 468.75 l 1
EndSplineSet
EndChar

StartChar: quotedbl
Encoding: 102 34 47
Width: 500
VWidth: 1024
Flags: H
LayerCount: 2
Fore
SplineSet
31.25 937.5 m 1
 125 843.75 l 1
 125 625 l 1
 31.25 531.25 l 1
 0 562.5 l 1
 0 906.25 l 1
 31.25 937.5 l 1
406.25 937.5 m 1
 437.5 906.25 l 1
 437.5 562.5 l 1
 406.25 531.25 l 1
 312.5 625 l 1
 312.5 843.75 l 1
 406.25 937.5 l 1
EndSplineSet
EndChar

StartChar: quotesingle
Encoding: 103 39 48
Width: 500
VWidth: 1024
Flags: H
LayerCount: 2
Fore
SplineSet
31.25 937.5 m 1
 125 843.75 l 1
 125 625 l 1
 31.25 531.25 l 1
 0 562.5 l 1
 0 906.25 l 1
 31.25 937.5 l 1
EndSplineSet
EndChar

StartChar: bracketleft
Encoding: 104 91 49
Width: 500
VWidth: 1024
Flags: H
LayerCount: 2
Fore
SplineSet
93.75 1000 m 1
 343.75 1000 l 1
 375 968.75 l 1
 281.25 875 l 1
 156.25 875 l 1
 62.5 968.75 l 1
 93.75 1000 l 1
31.25 937.5 m 1
 125 843.75 l 1
 125 625 l 1
 31.25 531.25 l 1
 0 562.5 l 1
 0 906.25 l 1
 31.25 937.5 l 1
31.25 468.75 m 1
 125 375 l 1
 125 156.25 l 1
 31.25 62.5 l 1
 0 93.75 l 1
 0 437.5 l 1
 31.25 468.75 l 1
156.25 125 m 1
 281.25 125 l 1
 375 31.25 l 1
 343.75 0 l 1
 93.75 0 l 1
 62.5 31.25 l 1
 156.25 125 l 1
EndSplineSet
EndChar

StartChar: bracketright
Encoding: 105 93 50
Width: 500
VWidth: 1024
Flags: H
LayerCount: 2
Fore
SplineSet
93.75 1000 m 1
 343.75 1000 l 1
 375 968.75 l 1
 281.25 875 l 1
 156.25 875 l 1
 62.5 968.75 l 1
 93.75 1000 l 1
406.25 937.5 m 1
 437.5 906.25 l 1
 437.5 562.5 l 1
 406.25 531.25 l 1
 312.5 625 l 1
 312.5 843.75 l 1
 406.25 937.5 l 1
406.25 468.75 m 1
 437.5 437.5 l 1
 437.5 93.75 l 1
 406.25 62.5 l 1
 312.5 156.25 l 1
 312.5 375 l 1
 406.25 468.75 l 1
156.25 125 m 1
 281.25 125 l 1
 375 31.25 l 1
 343.75 0 l 1
 93.75 0 l 1
 62.5 31.25 l 1
 156.25 125 l 1
EndSplineSet
EndChar

StartChar: less
Encoding: 106 60 51
Width: 500
VWidth: 1024
Flags: H
LayerCount: 2
Fore
SplineSet
93.75 1000 m 1
 343.75 1000 l 1
 375 968.75 l 1
 281.25 875 l 1
 156.25 875 l 1
 62.5 968.75 l 1
 93.75 1000 l 1
31.25 937.5 m 1
 125 843.75 l 1
 125 625 l 1
 31.25 531.25 l 1
 0 562.5 l 1
 0 906.25 l 1
 31.25 937.5 l 1
125 562.5 m 1
 312.5 562.5 l 1
 375 500 l 1
 312.5 437.5 l 1
 125 437.5 l 1
 62.5 500 l 1
 125 562.5 l 1
EndSplineSet
EndChar

StartChar: degree
Encoding: 107 176 52
Width: 500
VWidth: 1024
Flags: H
LayerCount: 2
Fore
SplineSet
93.75 1000 m 1
 343.75 1000 l 1
 375 968.75 l 1
 281.25 875 l 1
 156.25 875 l 1
 62.5 968.75 l 1
 93.75 1000 l 1
31.25 937.5 m 1
 125 843.75 l 1
 125 625 l 1
 31.25 531.25 l 1
 0 562.5 l 1
 0 906.25 l 1
 31.25 937.5 l 1
406.25 937.5 m 1
 437.5 906.25 l 1
 437.5 562.5 l 1
 406.25 531.25 l 1
 312.5 625 l 1
 312.5 843.75 l 1
 406.25 937.5 l 1
125 562.5 m 1
 312.5 562.5 l 1
 375 500 l 1
 312.5 437.5 l 1
 125 437.5 l 1
 62.5 500 l 1
 125 562.5 l 1
EndSplineSet
EndChar

StartChar: equivalence
Encoding: 108 8801 53
Width: 500
VWidth: 1024
Flags: H
LayerCount: 2
Fore
SplineSet
93.75 1000 m 1
 343.75 1000 l 1
 375 968.75 l 1
 281.25 875 l 1
 156.25 875 l 1
 62.5 968.75 l 1
 93.75 1000 l 1
125 562.5 m 1
 312.5 562.5 l 1
 375 500 l 1
 312.5 437.5 l 1
 125 437.5 l 1
 62.5 500 l 1
 125 562.5 l 1
156.25 125 m 1
 281.25 125 l 1
 375 31.25 l 1
 343.75 0 l 1
 93.75 0 l 1
 62.5 31.25 l 1
 156.25 125 l 1
EndSplineSet
EndChar

StartChar: overline
Encoding: 109 8254 54
Width: 500
VWidth: 1024
Flags: H
LayerCount: 2
Fore
SplineSet
93.75 1000 m 1
 343.75 1000 l 1
 375 968.75 l 1
 281.25 875 l 1
 156.25 875 l 1
 62.5 968.75 l 1
 93.75 1000 l 1
EndSplineSet
EndChar
